<?xml version="1.0" standalone="no"?>
<!DOCTYPE svg PUBLIC "-//W3C//DTD SVG 20010904//EN"
 "http://www.w3.org/TR/2001/REC-SVG-20010904/DTD/svg10.dtd">
<svg version="1.0" xmlns="http://www.w3.org/2000/svg"
 width="600.000000pt" height="600.000000pt" viewBox="0 0 600.000000 600.000000"
 preserveAspectRatio="xMidYMid meet">
<metadata>
Created by potrace 1.16, written by Peter Selinger 2001-2019
</metadata>
<g transform="translate(0.000000,600.000000) scale(0.100000,-0.100000)"
fill="#000000" stroke="none">
<path d="M2805 5218 c-48 -18 -141 -39 -235 -54 -24 -3 -49 -12 -55 -19 -16
-20 -98 -62 -136 -70 -44 -9 -69 -32 -69 -62 0 -16 -16 -40 -45 -69 -25 -24
-45 -47 -45 -52 0 -15 -39 -84 -65 -115 -14 -17 -25 -39 -25 -49 0 -10 -4 -18
-10 -18 -5 0 -12 -16 -16 -35 -3 -19 -10 -35 -15 -35 -4 0 -13 -19 -20 -42 -6
-24 -15 -52 -19 -63 -12 -28 -19 -70 -25 -135 -3 -30 -7 -67 -9 -81 -2 -14 2
-39 9 -55 34 -79 65 -204 72 -286 4 -49 2 -59 -18 -79 -21 -21 -22 -27 -16
-153 3 -85 11 -144 20 -166 9 -19 23 -61 33 -92 9 -32 23 -63 30 -69 8 -6 14
-21 14 -33 0 -22 44 -56 73 -56 15 0 47 -56 47 -84 0 -8 19 -48 43 -88 86
-145 90 -160 91 -282 1 -139 -5 -162 -44 -171 -16 -4 -30 -10 -30 -15 0 -5
-10 -12 -22 -15 -13 -4 -50 -20 -83 -35 -33 -16 -85 -39 -115 -50 -30 -12 -59
-25 -65 -29 -5 -5 -23 -11 -40 -15 -16 -4 -32 -11 -35 -15 -3 -4 -40 -24 -84
-45 -56 -27 -74 -41 -65 -47 18 -11 48 -2 75 22 30 28 78 40 95 24 21 -19 94
-34 113 -23 19 11 57 -15 55 -36 -3 -29 2 -46 15 -46 20 0 26 -35 11 -64 -7
-13 -16 -40 -20 -58 -4 -18 -16 -50 -26 -70 -11 -21 -19 -44 -19 -53 0 -23 18
-18 26 7 4 13 13 27 19 33 7 5 18 27 25 48 12 40 34 67 53 67 8 0 7 -3 -2 -9
-9 -6 -10 -11 -2 -15 19 -12 13 -46 -9 -46 -24 0 -25 -4 -4 -35 9 -14 12 -25
6 -25 -5 0 -9 -18 -8 -40 0 -25 5 -40 13 -40 7 0 13 -5 13 -10 0 -22 39 -51
76 -57 37 -6 119 -55 109 -65 -3 -3 1 -24 9 -46 9 -23 12 -42 8 -42 -4 0 0 -6
9 -13 9 -7 24 -27 33 -45 9 -18 34 -50 54 -70 31 -32 44 -38 78 -37 25 0 50 7
61 17 11 10 26 18 33 18 8 0 3 8 -10 20 -13 11 -27 20 -32 20 -4 0 -8 7 -8 16
0 23 -24 11 -28 -14 -4 -23 -32 -20 -32 4 0 8 -4 14 -8 14 -13 0 -52 36 -52
48 0 6 -5 12 -12 14 -6 2 -13 24 -14 49 -5 63 -14 98 -41 148 -12 24 -23 50
-23 56 0 7 -6 15 -12 18 -44 17 -126 317 -87 317 5 0 7 -5 4 -10 -11 -17 96
-197 136 -230 3 -3 18 -24 33 -47 14 -24 31 -43 36 -43 6 0 10 -5 10 -10 0
-14 137 -175 164 -193 13 -9 49 -49 80 -91 86 -114 101 -117 53 -9 -22 50 -53
95 -99 145 -37 40 -80 91 -96 113 -17 22 -44 53 -62 70 l-33 29 27 9 c20 7 26
15 26 38 0 61 -39 89 -74 53 -14 -14 -14 -19 -1 -52 14 -34 10 -31 -49 33 -36
38 -78 95 -93 125 -15 30 -33 62 -39 70 -6 8 -14 41 -17 74 -3 32 -8 60 -10
62 -6 6 -193 -41 -250 -62 -41 -16 -49 -17 -57 -4 -12 19 -3 30 25 30 13 0 27
5 30 10 3 6 15 10 25 10 10 0 23 6 27 13 4 8 33 20 63 29 51 13 56 13 70 -3
21 -25 70 -15 63 12 -3 10 0 19 6 19 6 0 13 -12 16 -27 3 -16 12 -39 20 -53
21 -37 31 -58 66 -140 17 -41 38 -82 46 -90 17 -16 16 -13 -9 40 -9 19 -29 67
-44 105 -15 39 -33 75 -40 80 -6 6 -14 42 -17 80 -5 68 -5 69 6 25 15 -58 76
-176 104 -204 13 -11 23 -25 23 -29 0 -5 32 -41 71 -80 75 -74 139 -184 139
-238 0 -40 17 -66 98 -149 39 -41 72 -80 72 -85 0 -6 8 -18 19 -27 18 -15 20
-14 31 11 6 14 32 56 56 93 48 74 90 103 166 114 42 6 79 24 106 51 7 7 19 13
26 13 38 0 103 129 135 270 5 19 15 50 23 69 l15 34 11 -29 c8 -22 9 15 5 144
-4 117 -2 172 5 172 6 0 13 -6 15 -12 4 -10 6 -9 6 1 1 14 -36 68 -68 99 -54
52 -58 136 -11 274 18 51 36 97 41 102 5 6 9 21 9 35 1 15 9 41 18 60 16 33
30 41 94 55 18 4 38 23 58 54 l32 47 -40 -44 c-37 -42 -92 -66 -92 -42 0 29
34 91 53 97 25 7 57 33 57 45 0 4 -12 1 -27 -7 -39 -19 -53 -18 -53 7 0 15 5
19 16 15 20 -8 44 48 44 102 0 23 6 45 15 52 13 11 15 8 15 -19 0 -17 4 -31 8
-31 8 0 32 58 32 78 0 6 5 23 11 39 8 22 12 24 19 13 7 -10 10 3 10 41 0 46
-6 64 -31 102 -28 42 -30 53 -25 100 8 78 10 87 30 151 9 33 20 78 23 100 6
53 -24 328 -43 386 -8 25 -14 69 -14 98 0 37 -4 52 -13 52 -17 0 -34 33 -42
82 -6 41 -90 142 -127 154 -12 3 -31 17 -43 29 -11 13 -34 27 -51 30 -16 4
-38 13 -49 20 -23 13 -35 17 -164 50 -87 23 -243 42 -336 42 -22 0 -62 -9 -90
-19z m256 -455 c8 -6 47 -13 87 -17 40 -3 81 -10 90 -15 9 -4 22 -6 29 -4 7 2
22 -5 35 -16 23 -22 53 -27 63 -11 8 13 45 -20 45 -41 0 -8 3 -19 8 -23 4 -4
12 -22 19 -39 7 -19 12 -25 12 -14 1 16 5 15 36 -8 19 -15 38 -24 44 -21 5 3
8 -5 6 -19 -2 -18 3 -25 15 -25 10 0 18 -6 17 -12 0 -7 1 -23 1 -36 2 -22 3
-22 21 -5 10 10 22 36 26 58 l8 40 13 -30 13 -30 1 35 c0 24 3 31 11 23 13
-13 3 -75 -17 -100 -8 -11 -13 -13 -14 -5 0 20 -17 14 -25 -10 -4 -13 -7 -28
-6 -33 0 -6 -11 -11 -27 -10 -22 0 -27 4 -24 24 2 19 0 22 -12 12 -12 -10 -15
-3 -21 38 -4 28 -4 56 0 63 4 7 -3 2 -14 -12 l-21 -25 0 23 c0 12 -4 22 -10
22 -5 0 -10 -5 -10 -11 0 -6 -7 -9 -15 -5 -11 4 -16 -7 -22 -47 -4 -29 -7 -59
-7 -67 -1 -32 47 -180 64 -198 10 -10 15 -23 12 -28 -14 -19 -54 -35 -73 -29
-15 5 -19 1 -20 -17 -1 -17 -3 -15 -11 12 -12 42 -27 62 -42 57 -6 -3 -19 0
-29 5 -12 6 -19 5 -23 -7 -4 -10 -10 -12 -18 -7 -17 14 -53 20 -66 12 -7 -4
-28 -3 -49 2 -20 5 -45 11 -56 13 -10 3 -22 -1 -27 -8 -5 -9 -11 -7 -21 6 -13
18 -14 18 -49 0 -48 -24 -81 -74 -81 -121 0 -20 -2 -28 -4 -17 -5 19 -20 35
-35 35 -4 0 -5 -17 -2 -37 4 -32 3 -35 -6 -15 -16 37 -38 54 -79 59 -27 4 -41
11 -44 24 -3 10 -13 22 -24 26 -10 4 -27 15 -37 25 -21 19 -76 33 -98 25 -8
-3 0 -10 17 -16 34 -14 95 -75 95 -97 0 -22 -15 -17 -30 12 -8 14 -35 38 -60
52 -40 24 -55 27 -140 27 -82 0 -102 -4 -144 -25 -27 -14 -62 -41 -78 -60 -27
-32 -29 -40 -25 -91 6 -68 43 -145 92 -188 30 -26 42 -31 68 -26 18 3 46 7 62
8 39 4 74 23 107 58 15 16 36 29 46 29 11 0 25 7 32 15 7 8 21 15 31 15 11 0
19 6 20 13 0 9 2 9 5 0 3 -7 0 -21 -6 -32 -8 -17 -8 -21 3 -21 8 0 26 28 41
63 38 88 40 91 70 102 36 12 52 1 99 -69 21 -32 41 -55 44 -52 3 2 -2 15 -11
28 -9 12 -16 38 -16 58 l0 35 15 -29 c8 -15 12 -32 9 -37 -3 -5 0 -9 7 -9 7 0
23 -10 35 -21 28 -26 70 -33 78 -13 3 8 12 14 20 14 9 0 13 6 10 14 -10 26 15
27 32 1 31 -48 114 -24 114 34 1 25 1 25 16 6 8 -11 12 -25 10 -32 -3 -7 1
-13 9 -13 8 0 15 -7 15 -16 0 -10 -6 -14 -14 -11 -15 6 -30 -19 -20 -34 9 -14
-29 -10 -50 6 -11 9 -41 15 -68 15 -41 0 -48 -3 -48 -20 0 -11 6 -20 14 -20 7
0 19 -6 26 -14 6 -8 18 -12 27 -9 8 3 19 0 24 -8 7 -11 9 -11 9 -1 0 7 6 12
13 11 39 -6 97 44 97 84 0 26 3 29 25 23 26 -7 65 21 65 47 0 6 5 4 11 -6 7
-11 7 -23 1 -30 -11 -14 -23 -47 -18 -47 3 0 18 22 35 49 28 47 32 73 16 119
-2 6 -1 12 4 12 5 0 22 3 38 6 32 6 32 6 49 -86 1 -8 6 -25 9 -37 5 -15 3 -23
-5 -23 -8 0 -5 -12 9 -36 12 -19 21 -43 21 -52 0 -23 -92 -212 -104 -212 -5 0
-18 8 -29 18 -20 17 -20 16 -12 -28 11 -62 9 -87 -7 -102 -30 -29 -40 -20 -37
33 3 44 0 53 -16 59 -12 4 -25 1 -33 -7 -8 -7 -17 -11 -22 -8 -4 2 -29 7 -55
10 -28 2 -64 15 -86 30 -21 14 -42 25 -46 25 -4 0 -24 17 -45 37 -51 50 -49
24 2 -28 44 -46 56 -88 19 -68 -15 8 -28 8 -44 1 -29 -13 -75 5 -75 29 0 29
-54 39 -89 17 -15 -9 -25 -9 -46 0 -38 17 -130 15 -145 -3 -14 -17 -50 -21
-50 -5 0 5 6 29 14 52 32 100 29 106 -20 33 -26 -38 -51 -71 -55 -73 -5 -2 -9
-9 -9 -15 0 -27 -152 -66 -176 -46 -7 6 -18 8 -24 4 -7 -4 -27 8 -46 26 -33
32 -35 33 -40 12 -7 -26 -30 -37 -37 -18 -10 25 33 93 66 105 l32 11 -27 23
c-48 42 -90 130 -95 201 -3 35 -3 75 1 89 7 30 72 94 104 102 16 4 21 11 17
22 -3 8 6 32 20 53 14 21 25 41 25 45 0 3 12 15 26 26 14 12 30 31 34 44 5 13
16 24 25 24 8 0 15 5 15 11 0 5 -5 7 -12 3 -7 -4 -8 -3 -4 5 4 6 11 9 16 6 4
-3 13 2 20 9 6 8 24 18 40 21 15 3 36 15 46 26 19 22 13 24 -19 8 -20 -11 -20
-9 3 12 37 36 113 89 128 89 7 0 11 4 8 9 -6 9 79 71 96 71 4 0 8 6 8 13 0 8
21 25 48 38 26 13 48 26 50 29 4 10 130 4 143 -7z m17 -1145 c7 -7 12 -18 12
-25 0 -8 15 -37 33 -66 18 -29 37 -58 42 -66 7 -12 -4 -13 -68 -8 -57 5 -79 3
-89 -7 -8 -7 -25 -16 -38 -20 -23 -6 -23 -6 -7 7 9 8 17 17 17 20 0 3 -8 7
-17 10 -13 3 -8 8 19 20 43 20 56 39 64 102 7 47 12 53 32 33z m96 -304 c3 -9
6 -25 6 -36 0 -36 32 -96 58 -107 17 -8 21 -15 14 -24 -5 -6 -13 -31 -17 -55
-5 -31 -19 -55 -48 -87 -37 -39 -48 -45 -90 -48 -26 -2 -50 0 -53 5 -3 4 -12
1 -20 -7 -20 -19 -34 -19 -34 0 0 14 -29 21 -55 15 -5 -1 -29 -2 -52 -2 -31 0
-40 -4 -36 -14 4 -10 0 -12 -11 -8 -23 9 -20 55 7 95 23 34 23 34 118 39 92 5
96 6 143 45 46 37 66 68 66 101 0 12 -4 12 -20 4 -16 -9 -20 -8 -20 5 0 13 -4
14 -21 5 -11 -7 -23 -9 -26 -7 -2 3 -19 -1 -37 -8 -18 -8 -63 -17 -99 -20 -62
-6 -67 -5 -67 13 0 35 33 51 135 67 54 8 107 21 119 29 27 19 33 19 40 0z"/>
<path d="M4449 1183 c-27 -75 -35 -91 -67 -136 -19 -26 -43 -52 -53 -58 -12
-6 -19 -20 -19 -37 0 -15 -9 -59 -21 -97 -11 -39 -23 -83 -26 -99 -7 -34 -84
-116 -110 -116 -16 -1 -16 -2 2 -18 22 -19 26 -33 31 -112 4 -84 29 -221 47
-262 13 -28 15 -53 10 -115 -11 -127 -11 -128 16 -131 13 -2 28 2 32 10 13 19
30 85 34 129 2 21 11 54 20 75 8 20 15 45 15 54 0 10 4 20 10 22 5 2 12 20 14
42 3 21 12 49 21 62 8 13 15 33 15 44 0 12 4 29 9 38 4 9 11 36 15 59 5 35 4
41 -9 37 -8 -3 -24 -22 -36 -41 -12 -19 -24 -32 -27 -29 -3 3 2 14 10 23 16
19 25 49 38 128 4 28 22 115 39 195 29 135 41 248 23 225 -7 -11 -47 -13 -57
-4 -3 3 2 23 11 45 21 48 34 94 28 94 -2 0 -9 -12 -15 -27z"/>
<path d="M1370 919 c0 -5 6 -7 13 -3 6 4 4 -2 -5 -13 -13 -14 -18 -37 -18 -77
0 -63 -12 -96 -36 -96 -13 0 -13 -3 1 -27 37 -65 55 -93 75 -113 12 -12 19
-28 16 -36 -3 -9 -1 -12 4 -9 11 6 14 -27 4 -37 -3 -4 -21 0 -39 8 -19 8 -40
14 -47 14 -19 0 -20 -44 -3 -109 20 -70 23 -88 33 -178 6 -55 14 -78 31 -97
17 -18 22 -33 19 -55 -4 -28 -2 -31 23 -31 34 0 43 -13 29 -40 -11 -20 -9 -21
67 -18 l78 3 14 62 c14 62 14 62 -13 103 -40 61 -88 197 -89 257 -1 29 -5 53
-9 53 -5 0 -8 7 -8 16 0 14 1 14 16 0 8 -9 21 -16 27 -16 8 0 7 4 -1 12 -7 7
-12 20 -12 29 0 10 -8 25 -17 35 -24 23 -52 144 -53 221 0 56 -3 66 -37 107
-36 43 -63 58 -63 35z"/>
<path d="M3903 599 c-19 -20 -16 -54 12 -111 14 -28 25 -57 25 -64 0 -6 21
-29 48 -50 26 -21 53 -44 60 -51 7 -7 20 -13 28 -13 8 0 13 -4 10 -9 -3 -4 7
-8 22 -7 25 1 27 5 30 45 2 25 -2 56 -8 70 -7 14 -19 40 -27 58 -9 17 -16 35
-16 40 -1 4 -9 16 -18 27 -12 12 -16 28 -13 45 l6 27 -74 2 c-48 2 -77 -1 -85
-9z"/>
<path d="M1959 558 c-10 -32 -16 -207 -6 -201 4 2 8 1 8 -4 11 -79 0 -107 -20
-53 -6 17 -16 43 -22 59 -11 30 -11 30 -41 13 -55 -31 -79 -141 -43 -196 20
-30 15 -38 -32 -54 -24 -8 -33 -8 -36 1 -2 7 -8 9 -12 5 -4 -4 -2 -15 6 -24
11 -13 11 -18 2 -21 -7 -3 -13 -12 -13 -20 0 -9 -6 -13 -15 -9 -8 3 -15 1 -15
-4 0 -5 9 -12 20 -15 11 -3 20 -13 20 -21 0 -19 143 -20 157 -2 13 17 25 62
29 113 2 22 6 49 8 60 3 11 5 28 5 38 1 9 8 17 16 17 8 0 15 7 15 15 0 8 5 15
11 15 6 0 9 7 5 15 -3 8 -1 15 4 15 19 0 10 42 -12 60 l-23 18 19 49 c10 26
19 63 20 81 1 17 6 32 11 32 21 0 -21 20 -42 20 -13 0 -23 -1 -24 -2z"/>
<path d="M3730 464 c0 -6 11 -37 25 -68 14 -31 25 -62 25 -69 0 -7 11 -34 25
-62 13 -27 25 -56 25 -63 0 -8 7 -30 16 -50 9 -21 22 -50 29 -67 46 -108 55
-110 77 -14 17 75 15 99 -8 99 -8 0 -14 4 -14 9 0 5 -3 18 -6 28 -3 10 2 7 10
-7 12 -20 15 -22 16 -7 0 25 -19 59 -29 52 -12 -7 -22 21 -15 40 4 8 1 15 -6
15 -6 0 -8 5 -5 10 3 6 1 10 -4 10 -6 0 -11 -8 -11 -17 0 -10 -4 -24 -9 -32
-7 -11 -13 -8 -26 13 -14 20 -15 30 -6 39 8 8 11 6 11 -9 1 -19 1 -19 15 0 21
28 19 34 -10 29 -24 -5 -55 15 -55 35 0 6 -5 12 -10 14 -6 2 -12 13 -13 26 0
12 -7 22 -14 22 -6 0 -17 8 -22 18 -6 9 -11 12 -11 6z"/>
</g>
</svg>
